<svg id="Layer_1" data-name="Layer 1" xmlns="http://www.w3.org/2000/svg" xmlns:xlink="http://www.w3.org/1999/xlink" viewBox="0 0 128 128">
  <defs>
    <linearGradient id="linear-gradient" y1="-689.46" x2="128" y2="-689.46" gradientTransform="matrix(1, 0, 0, -1, 0, -648.86)" gradientUnits="userSpaceOnUse">
      <stop offset="0.06" stop-color="#2b86d0"/>
      <stop offset="0.89" stop-color="#21d789"/>
    </linearGradient>
    <linearGradient id="linear-gradient-2" x1="36.47" y1="-659.5" x2="81.53" y2="-757.05" gradientTransform="matrix(1, 0, 0, -1, 0, -648.86)" gradientUnits="userSpaceOnUse">
      <stop offset="0.17" stop-color="#f1eb5e"/>
      <stop offset="0.58" stop-color="#26adae"/>
      <stop offset="0.63" stop-color="#28a1b9"/>
      <stop offset="0.72" stop-color="#2992c6"/>
      <stop offset="0.79" stop-color="#2a8dca"/>
      <stop offset="1" stop-color="#2b86d0"/>
    </linearGradient>
  </defs>
  <title>icon_MPS</title>
  <g>
    <polygon points="21 59 103.6 74.6 77.6 128 0 111.4 21 59" fill="#21d789"/>
    <polygon points="89.2 0.2 0 22.2 3.8 68.8 63.2 62.8 99.8 81 104.6 72 128 28.6 89.2 0.2" fill="url(#linear-gradient)"/>
    <polygon points="57.6 0 3.8 68.8 114.4 97.8 127.4 78.6 57.6 0" fill="url(#linear-gradient-2)"/>
  </g>
  <g>
    <rect x="24" y="24" width="80" height="80"/>
    <g>
      <rect x="31.6" y="89" width="30" height="5" fill="#fff"/>
      <polygon points="31.4 34.2 37 34.2 43.4 44.4 49.6 34.2 55.4 34.2 55.4 58.2 50.2 58.2 50 42.4 43.4 52.8 43.2 52.8 36.6 42.6 36.6 58.2 31.4 58.2 31.4 34.2" fill="#fff"/>
      <path d="M58,34.2h9.8c5.8,0,9.2,3.4,9.2,8.2h0c0,5.6-4.4,8.4-9.6,8.4h-4V58H58.2Zm9.6,12.2a3.9,3.9,0,0,0,4.2-3.8h0c0-2.4-1.6-3.6-4.2-3.6h-4v7.4h4Z" fill="#fff"/>
      <path d="M78.4,54.6l3.2-3.8c2.2,1.8,4.4,3,7.2,3,2.2,0,3.4-.8,3.4-2.2h0c0-1.4-.8-2-4.8-3-4.8-1.2-8-2.6-8-7.4h0c0-4.4,3.4-7.2,8.4-7.2a13.41,13.41,0,0,1,8.8,3l-2.8,4c-2.2-1.4-4.2-2.4-6.2-2.4s-3,1-3,2h0c0,1.6,1,2,5.2,3.2,4.8,1.2,7.6,3,7.6,7.2h0c0,4.8-3.6,7.4-8.8,7.4a14.7,14.7,0,0,1-10.2-3.8" fill="#fff"/>
    </g>
  </g>
</svg>
