<svg id="Layer_1" data-name="Layer 1" xmlns="http://www.w3.org/2000/svg" xmlns:xlink="http://www.w3.org/1999/xlink" viewBox="0 0 250 250">
  <defs>
    <linearGradient id="linear-gradient" x1="76.05" y1="185.57" x2="174.69" y2="60.65" gradientUnits="userSpaceOnUse">
      <stop offset="0" stop-color="#aa62a6"/>
      <stop offset="0.55" stop-color="#c55597"/>
      <stop offset="1" stop-color="#d64c8d"/>
    </linearGradient>
    <linearGradient id="linear-gradient-2" x1="94.93" y1="104.55" x2="174.85" y2="65.31" gradientUnits="userSpaceOnUse">
      <stop offset="0" stop-color="#ed417c"/>
      <stop offset="0.22" stop-color="#e74480"/>
      <stop offset="1" stop-color="#d64c8d"/>
    </linearGradient>
    <linearGradient id="linear-gradient-3" x1="86.76" y1="103.67" x2="156.6" y2="178.19" gradientUnits="userSpaceOnUse">
      <stop offset="0" stop-color="#ed417c"/>
      <stop offset="0.02" stop-color="#ed427a"/>
      <stop offset="0.67" stop-color="#f16b4e"/>
      <stop offset="1" stop-color="#f37b3d"/>
    </linearGradient>
    <linearGradient id="linear-gradient-4" x1="73.98" y1="125.59" x2="161.82" y2="178.87" gradientUnits="userSpaceOnUse">
      <stop offset="0" stop-color="#39bfef"/>
      <stop offset="0.25" stop-color="#6eacbd"/>
      <stop offset="0.61" stop-color="#b59278"/>
      <stop offset="0.87" stop-color="#e2814d"/>
      <stop offset="1" stop-color="#f37b3d"/>
    </linearGradient>
  </defs>
  <title>logo_Jetbrains_2-01</title>
  <g>
    <g>
      <path d="M182,69.39a7.27,7.27,0,1,0-10.59-10h0L68.79,176.83a9.42,9.42,0,1,0,13.92,12.66h0Z" fill="url(#linear-gradient)"/>
      <path d="M184,64.15A7.27,7.27,0,0,0,173.3,58h0L87.78,100a6,6,0,1,0,5.17,10.73h0l86.4-39.6A7.27,7.27,0,0,0,184,64.15Z" fill="url(#linear-gradient-2)"/>
      <path d="M159.2,164L94.55,101.72a6,6,0,0,0-8.95,7.87v0l56.27,69.79A11.65,11.65,0,1,0,159.2,164Z" fill="url(#linear-gradient-3)"/>
      <g>
        <path d="M156.39,162c3.82,1.89,0,0,0,0h0Z" fill="#39bfef"/>
        <path d="M162.85,171.76c0.07-3.72-1.81-7.45-6.46-9.76-5.52-2.81-11.08-5.54-16.62-8.31l-16.44-8.23-16.46-8.25-16.63-8.35-17.8-9a4.58,4.58,0,0,0-4.4,8L68.13,128l0.05,0s1.37,0.93,2.12,1.49c1.26,0.95,2.59,1.82,3.88,2.73l7.46,5.26L97,148.3l15,10.64,15.18,10.75c5.06,3.59,10.06,7.3,15.2,10.78,0.62,0.42,1.2.93,1.85,1.31l0.4,0.22,0,0a11.65,11.65,0,0,0,18.27-9.67C162.87,172.17,162.86,172,162.85,171.76Z" fill="url(#linear-gradient-4)"/>
      </g>
    </g>
    <g>
      <rect x="91.95" y="107.78" width="51.02" height="51.02"/>
      <rect x="96.35" y="149.23" width="19.13" height="3.19" fill="#fff"/>
      <g>
        <path d="M96.14,121.21l1.48-1.4a1.68,1.68,0,0,0,1.31.77,1,1,0,0,0,.94-1.16v-5.26h2.29v5.27a3.09,3.09,0,0,1-.82,2.34,3.13,3.13,0,0,1-2.28.84A3.4,3.4,0,0,1,96.14,121.21Z" fill="#fff"/>
        <path d="M102.7,114.15h6.69v1.95H105v1.27h4v1.82h-4v1.32h4.47v2H102.7v-8.32Z" fill="#fff"/>
        <path d="M112.4,116.17h-2.48v-2h7.28v2H114.7v6.3h-2.3v-6.3Z" fill="#fff"/>
        <path d="M96.35,124.41h4.26a3.11,3.11,0,0,1,2.27.74,1.87,1.87,0,0,1,.53,1.35v0a1.92,1.92,0,0,1-1.28,1.85,2,2,0,0,1,1.65,2v0c0,1.43-1.16,2.29-3.15,2.29H96.35v-8.32Zm4.8,2.57c0-.46-0.37-0.71-1-0.71H98.6v1.46H100c0.7,0,1.1-.24,1.1-0.72v0Zm-0.8,2.36H98.6v1.53h1.78c0.71,0,1.1-.27,1.1-0.76v0C101.49,129.64,101.13,129.34,100.36,129.34Z" fill="#fff"/>
        <path d="M104.13,124.41h3.93a3.68,3.68,0,0,1,2.71.89,2.6,2.6,0,0,1,.74,1.94v0a2.63,2.63,0,0,1-1.71,2.57l2,2.9h-2.65l-1.68-2.52h-1v2.52h-2.3v-8.32Zm3.84,4a1,1,0,0,0,1.24-1v0a1,1,0,0,0-1.25-1h-1.52v2H108Z" fill="#fff"/>
        <path d="M114.21,124.35h2.22l3.54,8.38H117.5l-0.59-1.5h-3.22l-0.59,1.5h-2.41Zm2,5.08-0.93-2.35-0.94,2.35h1.87Z" fill="#fff"/>
        <path d="M120.24,124.41h2.3v8.32h-2.3v-8.32Z" fill="#fff"/>
        <path d="M123.12,124.41h2.15l3.42,4.4v-4.4H131v8.32h-2l-3.56-4.56v4.56h-2.28v-8.32Z" fill="#fff"/>
        <path d="M131.12,131.49L132.4,130a4.31,4.31,0,0,0,2.7,1c0.63,0,1-.21,1-0.57v0c0-.36-0.27-0.53-1.41-0.81-1.77-.4-3.14-0.9-3.14-2.6v0c0-1.54,1.22-2.66,3.22-2.66a5.23,5.23,0,0,1,3.42,1.1L137,127a4.08,4.08,0,0,0-2.33-.82c-0.56,0-.83.23-0.83,0.53v0c0,0.38.29,0.55,1.45,0.81,1.9,0.42,3.09,1,3.09,2.59v0c0,1.7-1.34,2.71-3.36,2.71A5.83,5.83,0,0,1,131.12,131.49Z" fill="#fff"/>
      </g>
    </g>
  </g>
</svg>
