<svg id="Layer_1" data-name="Layer 1" xmlns="http://www.w3.org/2000/svg" xmlns:xlink="http://www.w3.org/1999/xlink" viewBox="0 0 250 250">
  <defs>
    <linearGradient id="linear-gradient" x1="69.27" y1="161.25" x2="213.1" y2="79.33" gradientUnits="userSpaceOnUse">
      <stop offset="0" stop-color="#00adee"/>
      <stop offset="1" stop-color="#9f76a6"/>
    </linearGradient>
    <linearGradient id="linear-gradient-2" x1="88.07" y1="100.15" x2="205.43" y2="79.87" gradientUnits="userSpaceOnUse">
      <stop offset="0" stop-color="#ec037c"/>
      <stop offset="1" stop-color="#9f76a6"/>
    </linearGradient>
    <linearGradient id="linear-gradient-3" x1="84.77" y1="96.35" x2="122.75" y2="162.23" gradientUnits="userSpaceOnUse">
      <stop offset="0" stop-color="#ec037c"/>
      <stop offset="1" stop-color="#5c2d90"/>
    </linearGradient>
    <linearGradient id="linear-gradient-4" x1="35.02" y1="104.39" x2="123.94" y2="163.07" gradientUnits="userSpaceOnUse">
      <stop offset="0" stop-color="#44c7f4"/>
      <stop offset="1" stop-color="#5c2d90"/>
    </linearGradient>
  </defs>
  <title>logo_Jetbrains_3</title>
  <g>
    <path d="M220,79.45a7.05,7.05,0,0,0-10.75-6h0L44.66,171.08h0a3.42,3.42,0,1,0,3,6.15h0l0.13-.07,168-91.3a7,7,0,0,0,.84-0.46h0A7,7,0,0,0,220,79.45Z" fill="url(#linear-gradient)"/>
    <path d="M220,79.45a7.05,7.05,0,0,0-7.05-7.05,7.13,7.13,0,0,0-.76,0v0L86.76,90.28a10,10,0,1,0,3.71,19.51L213.85,86.44a7,7,0,0,0,.76-0.14h0A7.06,7.06,0,0,0,220,79.45Z" fill="url(#linear-gradient-2)"/>
    <path d="M135.42,162a12.56,12.56,0,0,0-2.23-6.87L96.68,96.66h0a10,10,0,0,0-18.91,6.54h0a10,10,0,0,0,1.69,3.25L111.07,167a12.57,12.57,0,0,0,1.16,2.22h0A12.63,12.63,0,0,0,135.42,162Z" fill="url(#linear-gradient-3)"/>
    <path d="M135.42,162a12.61,12.61,0,0,0-5.56-10.16h0a12.61,12.61,0,0,0-2-1.09L36.7,100.39h0A4.42,4.42,0,0,0,32.17,108l81.57,63.13A12.62,12.62,0,0,0,135.42,162Z" fill="url(#linear-gradient-4)"/>
    <rect x="79.87" y="109.07" width="51.02" height="51.02"/>
    <rect x="84.27" y="150.52" width="19.13" height="3.19" fill="#fff"/>
    <g>
      <path d="M84.06,122.5l1.48-1.4a1.68,1.68,0,0,0,1.31.77,1,1,0,0,0,.94-1.16v-5.26h2.29v5.27a3.09,3.09,0,0,1-.82,2.34,3.13,3.13,0,0,1-2.28.84A3.4,3.4,0,0,1,84.06,122.5Z" fill="#fff"/>
      <path d="M90.61,115.45H97.3v1.95H92.89v1.27h4v1.82h-4v1.32h4.47v2H90.61v-8.32Z" fill="#fff"/>
      <path d="M100.32,117.46H97.83v-2h7.28v2h-2.49v6.3h-2.3v-6.3Z" fill="#fff"/>
      <path d="M84.27,125.71h4.26a3.11,3.11,0,0,1,2.27.74,1.87,1.87,0,0,1,.53,1.35v0a1.92,1.92,0,0,1-1.28,1.85,2,2,0,0,1,1.65,2v0c0,1.43-1.16,2.29-3.15,2.29H84.27v-8.32Zm4.8,2.57c0-.46-0.37-0.71-1-0.71H86.51V129H88c0.7,0,1.1-.24,1.1-0.72v0Zm-0.8,2.36H86.51v1.53H88.3c0.71,0,1.1-.27,1.1-0.76v0C89.4,130.93,89,130.64,88.27,130.64Z" fill="#fff"/>
      <path d="M92.05,125.71H96a3.68,3.68,0,0,1,2.71.89,2.6,2.6,0,0,1,.74,1.94v0a2.63,2.63,0,0,1-1.71,2.57l2,2.9H97.05l-1.68-2.52h-1V134h-2.3v-8.32Zm3.84,4a1,1,0,0,0,1.24-1v0a1,1,0,0,0-1.25-1H94.36v2h1.53Z" fill="#fff"/>
      <path d="M102.13,125.65h2.22l3.54,8.38h-2.47l-0.59-1.5H101.6L101,134H98.6Zm2,5.08-0.93-2.35-0.94,2.35h1.87Z" fill="#fff"/>
      <path d="M108.16,125.71h2.3V134h-2.3v-8.32Z" fill="#fff"/>
      <path d="M111,125.71h2.15l3.42,4.4v-4.4h2.28V134h-2l-3.56-4.56V134H111v-8.32Z" fill="#fff"/>
      <path d="M119,132.79l1.28-1.53a4.31,4.31,0,0,0,2.7,1c0.63,0,1-.21,1-0.57v0c0-.36-0.27-0.53-1.41-0.81-1.77-.4-3.14-0.9-3.14-2.6v0c0-1.54,1.22-2.66,3.22-2.66a5.23,5.23,0,0,1,3.42,1.1l-1.15,1.63a4.08,4.08,0,0,0-2.33-.82c-0.56,0-.83.23-0.83,0.53v0c0,0.38.29,0.55,1.45,0.81,1.9,0.42,3.09,1,3.09,2.59v0c0,1.7-1.34,2.71-3.36,2.71A5.83,5.83,0,0,1,119,132.79Z" fill="#fff"/>
    </g>
  </g>
</svg>
