<?xml version="1.0" encoding="UTF-8" standalone="no"?>
<svg width="376px" xmlns="http://www.w3.org/2000/svg" viewBox="0 0 376 457" version="1.1" height="457px">
 <path d="m59.8 1.5l19.5 48.9c0.2 1.2 0.45 2.725-1.2 2.9-3.35 0.825-10.225 0.075-8.2 5.5 3 24.3 5.6 48.8 8.9 73 2 1.1 4.3 0 6.5 0 11.5-1.9 24.3-7 29-19.2 5.8-19.1-2-37.9-10.3-53.8-3.5-0.4-6.4 2.7-10.1 2l-0.7-1-2.2-36c0.2-0.8 0.6-1.2 1.2-1.7h1.5l31.2 24v2.4l-7.2 5.1v1.2c15.1 19.2 24.3 47.2 12.9 71.2-8.8 18.1-28.6 22.9-45.6 27.9l-4.5 0.9c0.9 22.1 3.7 44.1 5 66.3 2.4 1.4 4.9 2 7 4.1 9.7 10.2 19.2 21.3 30 30.4 16.1-5.8 30.5-15.5 45.3-24.4-2.5-3.8-7-7.3-4.5-12.5 3.8-5.9 4.5-13.6 3.3-20.9-9.3-5.4-17.2-15.2-23.5-23.8-8.5-6.1-24-11.5-22.3-24.9 0.5-2.4 2.6-3.9 4.6-5.3 2.7-1 6.2-1.4 8.6 0.5l7.4 7.7c-0.09-1.88-0.08-3.41 0.32-4.71 1.4-3.1 4.38-5.09 6.48-7.79-2.4 0-6.29 3.78-7.5 1.2-0.7-2.4 1.9-3.8 3.4-4.8 7.4-4.2 15.5-6.6 24-8.2 1.8-1.9 2.7-4.2 3.3-6.7 0.79-7.04 4.42-14.09-0.93-21.707-9.1-13.6-16.17-33.293-5.47-48.593 9.6-9.3 22.5-10.8 35.7-11.5 5.2-0.5 9.8 0.6 14.7 0.9 4.3-7.1 7.8-15.8 16-19.9 2.7-0.4 4.6 1.4 6 3.4 4.2 7.2 6 15.5 10.8 22.5 20.2-2.1 43.6-3.6 59.6 8.7 19 12.1 34.9 31.4 39.3 52.5l1.2 0.7c8.7 0.2 16.8-0.6 23.5-5 1.1-0.1 2.3 0.1 2.7 1.2 3.2 15.6-4 29.3-14.7 40.3-3.7 3.2-7.8 5.4-12 7.5-1.4 13.6-7 26.2-18.2 35.2-12.8 8.9-26.8 15-40.3 22.1 0.2 17.1 6.6 31.8 15.8 45.1-0.8 2.2-2.7 3.3-4.3 5.1-8.2 7-20.8 9.2-31.2 5.3-1.9-1.3-4.9-1.1-5.8-3.9-4.6-13.1-4.1-28.7-4-43.4-10.2 2.9-21.3 3.3-30 9.6-6.3 8.3 5.7 8.8 8.8 13.7 16.9 14.5 34.8 31.2 41.8 51.1 3.9 10.9-1 22-9.1 29.5-4.9 3.7-10.5 5.8-16.3 7.2v1c10.2 13.3 16.7 31.9 9.3 48.7-0.6 4.1-6.1 8.2-0.9 12 1 0.8 1.5 3.2 3.1 2.4 17.6-7.2 35.3-14.1 55.2-15.6 10.4 1.1 21.2 1.5 29.7 7.2 2.5 2 2.4 5.3 2 8.1-2.2 6-8.3 10.2-13.2 14-20.8 12.5-48.4 14.2-73.5 10.5-4.4-0.8-8.6-2-12.7-3.6 0.4 3.7 1.5 8.1 0.7 12.3-2.1 9.2-8.6 16.6-14.9 24.2-5.4 4.8-12.9 9.1-20.1 5.3-3.4-3.1-1.8-8.8-0.5-12.3l-0.5-0.4c-7.2 5.2-17.1 9.1-26.1 5-1.7-1.3-1.9-3.4-1.7-5-4 0.3-10.8 2.8-13.2-2.2-1.1-4.6 3.2-7.9 6.5-10.6 4-2.8 9-3.7 12.9-7.2 1.6-1.3 3.9-1.2 5.1-2.8-3.3-1.7-6.7-3.1-9.6-5.6-2.9 0-5.6 1.5-8.4 2.2-15.6 4.4-31.8 7.3-47.8 10.8-6.6 3.5-14.5 3.8-21.6 6.2-1.8 0.1-3.7 0.1-5-0.9-0.8-1.2-1.7-2.6-1-4.1 0.8-1.9 1.8-3.6 3.1-5.3-2.9 0.1-6.2 1.4-9.3 1 0.9 3-0.8 5-3.2 6.7-5.1 2.9-12.9 3-17.7-0.7l-11.5-162.3c-3.3-1.5-5.9-4.9-6.5-8.4-0.1-2 0.1-3.9 0.7-5.7-2.4-1.4-5.8-3.4-5.5-6.7 0.1-2.6 1.4-4.8 3.3-6.3-2.1-1.2-4.3-3.6-4.8-6.2-0.7-5.1 2.2-9.1 6.3-11.8 3.6-0.4 2.7-3.3 2.9-6.2l-4.4-60.3-0.4-0.4c-23.5-0.3-48.6-6.8-58.4-30-6.5-22.3-0.7-46.6 5.3-67.2l-7.4-4.1v-2.4c9-9.4 17.2-19.4 26.4-28.6 1.1-0.2 2 0.3 2.4 1.2l3.3 39.1c-2.5 2.8-6-0.7-9.1-0.7-1.2-0.7-2.5 0.2-2.6 1.5-4.5 18.8-10.5 45.9 6.9 60.4 8.4 6.3 19 7.7 29.8 8.2-0.5-25.4-1.7-51.1-2.6-76.6l-0.5-0.4c-3.7-0.7-7.9 1.5-10.6-1v-3.4c3.7-16.8 7-33.9 11.1-50.6 0.7-1.7 3.4-1 4 0.5zm31 266.1c-0.2-0.4-0.9-0.7-1.2-0.2l12 142.3c6.4-7.5 16.3-8.1 23.8-12.9-3.9-2.8-7.5-6.8-7.5-11.8 1.6-13.6 11.9-23.6 19.2-34.8l0.3-1.4c-3.6-11.1-5.1-24.5-2.7-36.5 0.7-3.3 1.6-6.9 1.9-9.9-7.6 2.5-17.1 5.6-25.2 2-12.4-9.2-16.3-23.4-20.6-36.8z" fill="#231F20"/>
 <path d="m58.2 5.3c5.8 15.1 12.2 30.1 17.7 45.4-3.2 0.8-6.5 1.2-9.6 2.4 3 27.5 6.4 54.8 10.1 82.1 10.7 0.3 20.6-2.6 29.3-7.7 11.6-7.7 14.9-20.4 13.4-33.9-1.7-13.9-7.3-26.1-13.7-38.1l-0.7-0.5c-2.9 0.8-5.6 2.2-8.6 2.6-0.6-10.3-1.9-20.8-1.7-31.2 8.9 6.9 18 13.5 26.9 20.7v0.5l-7.5 5.5c2.7 6 7.2 11.3 10.4 17 10.5 16.8 12.3 43 1.2 60-12.5 14.3-29.9 18.4-47.1 22.3l-0.9 1 5.5 68.6c-0.5 2-2.7 3.8-3.6 5.8-1 1-0.8 2.8-2.2 3.1-1.1-5.2-9.5-0.2-7.4-6.9l-5.1-70.4-0.9-0.9c-22.3 0-44.8-4.5-56.4-25-8.8-22.8-1.5-48.9 4.8-70.5-2.4-1.9-5.6-2.8-7.5-4.8 7.4-8.2 15.2-16.7 22.8-24.3l3.2 33.1c-3.3-0.1-6.6-1.5-10.1-1.6-2.1 4.9-3.1 10.5-4.3 15.8-3.5 18.1-5 41.5 12.4 53 9.6 5.9 20.7 7.7 32.7 7.7l0.5-0.5-3.2-82.3-0.7-0.5-10.3 0.3 10.1-47.8h0.5zm181.2 26.9c1.7 4.8 4 9.4 6 14.2-2.9-0.1-5.6 1-8.2 0.9-6.1-3.1-12.5-5.3-19.2-6.7 0.5-3.1 3.1-5.9 4.6-8.9 2.4-3.5 5.5-7.5 9.3-9.6 4.6 1.2 5.5 6.5 7.5 10.1zm51.6 75.8c1.1 2.3 1.2 5 2.8 7 1.2 0.2 1.2-1.3 0.8-1.9-9.1-24.8-29.2-49.4-53.1-63.6l0.7-0.5c21.9-2.6 48.6-5.1 65.8 9.6 17 11.8 30.6 29.1 34.8 48.2-1.9 0.2-3.7-1.7-5.5-2.6-4-1.4-8.1-3.2-12.7-2.2v0.3c4.5 0.6 9.1 1.2 12.7 4.1-7.6 0.3-15.1 4-19.2 11.2-3.9 7.5-5.4 18.6 0.5 25.7 6.4 7.2 14.9 9.6 24.4 9.4-0.6 9.8-5 18.7-11 26.6-12.9 11.1-27.5 18-42.2 24.7 0.3-4.2 1.2-8.1 1.9-12.2-0.3-0.2-0.6-0.7-1-0.5l-0.5 0.5c-5.8 21.9 0 45.1 11.8 62.6-6.7 7.1-15.6 10.4-25.7 9.2-3.5-1.1-7.7-1.5-10.1-4.4-5.5-20.5-3.6-45.3-1.6-66.9 3.4-25.3 11.4-48.6 13.4-74.4 0.8-27.7-28.9-45-50.4-53.5-15.1-6-36.8-8.8-50.6 1.4l0.7 0.7c14.6-9.2 35.6-6.2 50.6 0v0.5c-11.5 1.6-23 3.2-31.9 11-4.6-1-8.6 1.3-11.5 4.6-5.1 6.1-7.6 13.4-9.9 20.4-9.6-13.4-17.4-33.3-7.9-49.4 8.4-9.2 20.5-10.1 32.2-11.6 40.8-2.6 75.6 32.1 91.7 66zm82.3-0.2c0.5 17.1-9.7 34.1-25.9 40.8-9.7 1.9-20.3-0.2-26.9-8.2-3.8-5.5-3.2-14.3-0.5-20.1 2.6-6.1 8.9-10.2 15.1-11.1 12.1 0.7 25.5 2.5 35.8-3.3 1.7-2.2 2.3 0.7 2.4 1.9zm-273.4 319c-3.2 3.1-7.7 3.9-12.2 3.1l-3.4-1.2-11.5-160.3c3.3-0.2 7.1-0.2 8.6-3.6 1.1-5.4-5.2-8.1-8.4-11.6 4.6-1.1 4.5-8.4 9.4-7.6 0.9-0.3 1.4-1.7 2.4-1.7l15.1 182.9z" fill="#FE5376"/>
 <path d="m249.4 77.3c15.4 10.2 29.1 25.6 26.2 45.1-4.5 31.1-15.1 59.6-15.8 92.2-10.2 4-22.1 4.2-31.2 10.8-2.9 1.5-2 4.9-2.2 7.2-1.7-0.2-3.7 0.2-5 1.4-0.2 0.8 0.6 1 0.9 1.5 5-2.3 8.2 2.7 12 4.5 17.4 14 35.7 31.4 43.7 51.2 3.7 8.7 1.1 18.9-5 25.6-5.4 6-12.3 8.3-19.5 9.9-5.5-9.1-13.6-17.4-15.1-27.9l17.8 9.4c0.6-0.1 1.3 0.3 1.6-0.5 0.4-1.2-1-2.1-1.9-2.4-15.5-7.9-32.9-20.1-41-36.7-0.7-0.2-1 0.4-1.5 0.7 3.9 10.3 11.6 20.3 21.4 26.9 1.7 2.8 1.6 6.4 2.9 9.4 8 16.2 21.5 30.1 26.9 47.5 3.7 21-5.9 40.1-23.3 51.3-1.5 1.1-3.6 1.4-4.3 2.9 2.6-0.6 5.4-2.3 7.9-4.1 1.8 1.1 3 3.3 4.1 5.1 4 6.3 5.7 15.9 1.6 22.8-0.7 1.9-2.2 3.7-3.3 5.3-0.4-3-1.6-6-4.6-7.5-7.2-1.8-14.1 1.5-19.2 7 0.3-3.1-0.9-6.1-3.8-7.5-2.2-1.2-5.4-0.6-7.9-0.4 1.6-1.4 4.1-2.1 5.7-3.4l-0.5-0.5c-4.1 1.2-7.9 3.1-11.7 5.1-0.7-1.3-1.4-3.3-3.1-3.9-1.2-0.6-2.6-0.8-4.1-0.7 2.1-1.6 4.8-2.7 7.4-3.8 8.3 1.8 18.7 1.6 27.1 0.2 0.3-0.3 0.7-0.5 0.5-1-13.9 1.2-29.1 1.2-39.6-8.1-2.4-2.3-3.1-5.6-2.4-8.9 6.3-17.9 22.3-31.9 35.8-46.8-1.8-1-3.3 1.7-4.8 2.9-0.4 0.2-0.6 0.9-1.2 0.7 2.9-37.4-18.4-66.3-15.1-104.2 1-9.4 3.4-18.3 6.2-27.1 11.3-7.5 23.5-12.8 34.8-20.4 4.9-3.9 9.2-8.9 8.4-15.1-2.8-8.2-11.9-9.1-19.2-10.6-8.2-1.9-17.2-1.5-24.2-6.2-8.4-8.2-15.3-17.7-24.3-24.7-10.2-5.7-18.6 3.3-28.5 3.3-4.8 0.3-11.3 2-15.2-1.4-0.7-6.6 4.72-11.93 8.92-16.53-4.85 0.65-7.02 1.47-10.82 3.53-1.1-2 1.8-2.8 2.9-3.8 7.3-3.9 16-5.2 24.2-6.2 1.1 0.1 1.7-1.1 2.2-1.7 1 1.1 0.1 4.7 0.7 6.5-1.1-0.5-2.1-2.7-3.3-1.5v0.5c4.1 3.8 7.9 7.8 8.4 13.2 0.4 0.5 0.9 0.8 1.6 0.7 0.9-0.3 0.3-1.2 0.5-1.9 4-1.7 8.35-10.64 9.85-14.14 5.71-15.05 3.42-30.5 3.42-30.5s-0.19-5.515-3.67-7.16c-3-1.03-3.6-0.2-5 0.4-0.9 0.7-2.6 1.8-1.7 3.2-1 1.4-1.9 2.8-2.9 4.3-0.5 1-1.1 2.1-1.7 3.1 1.9-8.5 5-17.9 12.8-24 2.4-1.1 5.2-1.4 7.6-0.2 2.9 2.9 3.6 6.7 3.2 11 0.2 0.2 0.3 0.6 0.7 0.5 1.1-4.5 0.2-9.3-1.9-13 11.1-7.2 24.8-8.4 38.8-8.6l10.8 6.2zm-182.8 146.2c0 1.7 1 3.5 0 5 2.1 1 4.2 0.1 6.4 0.7 1.7 0.6 3 2 3.6 3.6-0.1 2-1.2 4.3-3.3 4.8-3.3 1.9-8.6 1.7-11.8-0.2-1.4-1.3-2.2-2.9-2.1-4.8-0.2-4.1 3.6-7.8 7.2-9.1zm25.4 4.1c9.5 10 18.8 20.9 29.3 29.7 5.6 0.4 10-3.2 14.9-5.3 10.9-6.2 22-12.3 32.8-18.9 0.9 0.5 2.2 1.8 2.9 2.9-14.3 19.7-26.1 40.6-33.8 63.1-2.8 2-6.5 2.5-9.9 3.6-5.2 1.1-12.1 2.2-16.8-1-11.2-9.8-14.7-23.3-18.9-36.2-0.6-1.3-2.1-0.5-3.1-0.7-0.3-3.8-0.3-7.7-1-11.3 3.9-0.7 8.6-0.2 10.8-4.1-1.2-0.8-1.9 0.8-2.9 1.2-2.5 0.5-5.3 1-7.9 0.5 0.4-5.8-2.292-12.36 1.183-17.31 0.583-1.22-0.394-1.9-0.828-1.27-2.2 3.9-3.155 8.68-7.355 11.38-1.5 0.3-2.7-0.5-3.3-1.7-0.9-7 2.3-13.9 7.7-18.5 2.4 0.6 4.3 2.1 6.2 3.9zm-16.3 13.9c0.4 2.2 2.3 4.1 0.2 6.2-1.2 2.1-3.4 2.9-5.3 3.9-3.6 0.9-7.2-0.2-9.3-3.2-0.6-2.1-0.2-4.3 1.7-5.7 2.4-3.1 7-0.9 9.8-2.9 1.1 0.2 2.4 0.4 2.9 1.7zm2.1 18.9c0.8 1.1 2 2.1 1.5 3.6-1.5 2.1-4.5 2.3-7 1.7-2.9-0.5-5.5-2.9-6.5-5.7-0.4-2-0.4-4.5 1-6 4.9-0.9 7.6 3.8 11 6.4zm60.8 92.2c6.7 21.6 28.3 42.2 49.9 48.5-0.5 3.8-0.3 7.8 1.4 11-15.6 5.8-32.8 8.1-49.2 12 0.9-2.4 2.4-5.4 1.5-8.6-1-2.4-3.5-4.1-5.8-4.6h-4.1c1.4-1.3 4-1.3 5.3-2.9l-0.5-0.4c-2.9 0.4-5.3 1.9-8.1 2.4-0.5-1.6-1.4-3.2-2.9-4.1-1.3-0.9-4.4 0-3.9-2.7l-0.9-1.6c2.7-0.9 5.3-4.4 8.4-2.4 13.8 6.9 30.5 9.9 47 7.4 0.3-0.3 0.7-0.5 0.5-1l-0.5-0.4c-19.5 2.1-38.3-1.9-52.8-14.2-4.6-5.2-1.2-12.2 1.2-17.3 4.2-7.1 8.6-14.4 13.5-21.1zm210.4 32.4c1.5 1 2.8 2.5 2.7 4.3 0.1 5.8-5.7 9.6-9.6 13.2-17.9 13-40.8 14.7-64.1 13.7-9.1-1-17.9-2.6-25.7-6.7-1.5-2.5-3.3-5.3-5-7.9 4.2-3 8.1-7.4 11-11.6 1.5 1 2.3 3.2 3.6 4.6 7.4 9.1 17.8 12.1 29.1 10.3 0.6-0.1 0.9-0.8 0.9-1.4-1.5-1.6-4.2 0-6.5-0.5-7-0.1-13-2.8-18-7.9v-0.7c16.2-6.5 32.6-12.6 50.4-15.2 11.2 0.2 22.1 1 31.2 5.8z" fill="#BF8464"/>
 <path d="m205.5 286.4c4.6 25.3 16.8 48.7 12.7 76.5-11.1 11.3-23.5 22-28.8 35.8-7-1.9-14-5.5-20.4-9.9-22.7-15.9-32.8-39.9-33.3-66.4 2.1-23.4 12.4-43.5 23.5-63.2 4.3-7.4 9.1-14.6 14.4-21.6 5.1 3.4 10.3 8 17 5.8 6.5-2.8 11.9-8.2 17.8-12.2-4.9 16.7-7 37-2.9 55.2z" fill="#F3CF96"/>
 <path d="m120.3 404.4v0.5c-6.8 1.9-12.8 5.4-18.2 10.6-0.8-3.1 2.4-5.1 4.3-7.2 4.1-2.3 8.1-5.5 13-5.3l0.9 1.4zm6.3 5.3c1.3 2.1-1.8 2.2-2.2 3.9-6.8 3.4-13.1 9.1-21.6 7.9-0.7-0.4-0.5-1.9-0.2-2.7 5.6-6.4 12.8-11.9 21.6-11.2 1 0.2 1.8 1.3 2.4 2.1zm13.4 6.5c0.7 2.3-0.1 4.6-1.4 6.2-6.9 6.9-17 6.3-25.7 8.9-0.8-0.2-1.6-0.3-2.2-1.2 1.9-7.5 10.2-12.9 16.8-15.6 3.7-1.2 10.3-3.2 12.5 1.7zm62.6 12.5c-0.1 5.7-7 6.1-10 10.5-3.9 1.3-9.6 4-13 0.3-0.1-3.6 3.1-6.2 5.8-8.2 4.9-2.6 10.6-6.2 16.5-3.3l0.7 0.7zm17.1 2.4c1.2 1.3 1.8 3.2 1.2 5-5.2 8.7-15.1 11.6-25 10.6-0.9-0.7-2.4-0.6-2.9-1.9 0.5-4.7 5.3-7.4 8.7-9.9 5.3-3 11.7-6.7 18-3.8zm23.3 0.7c1.9 1.7 2.2 4.5 1.6 7-3 7.9-10.9 15.7-19.9 15.8-1.8 0-3.6-0.7-4.5-2.2-1.7-7.9 3.6-15.1 10.3-19.4 3.5-1.9 8.6-3.7 12.5-1.2zm-106.4-281.5c8.9 8.8 18.7 17.6 26.9 26.9l0.5-0.5c-4.7-6.6-11-12.5-16.6-18.7 10.4-0.2 20.1-1.9 28.8-6 7-1.3 12.9 1.3 17.3 6.9l17.8 18.7c11.9 6.8 27.9 3.9 39.3 11.8 1.7 1.4 2.3 3.3 2.7 5.3-0.4 5.1-4.9 9-8.9 12.2-16.7 10.9-35 18.2-50.4 32.2-2.9 1.8-6.4 3.6-10.1 2.1-7.7-3.3-14.8-10.7-19.2-18-0.3-6.4 5.4-10.3 4.3-17v-6.2c1.9 0.7 3.8 1.9 5.3 3.1 0.4 5.7-2.3 10.2-4.1 15.1-0.7 5.4 4.8 9.1 8.4 12.7 10.7 7.2 21.5-1.3 29.8-7.7 10.3-10.3 21.7-18 32.6-26.6 0.8-0.4 2.4-1.4 2.7 0.2 1.2 1.7-0.5 4.9 1.4 5.8 1.5-2.6 0.4-6.1-0.9-8.4-3.2-4.1-7.7-5.9-12.8-5.8-0.5 0.5-0.8 1-0.7 1.7 1.6 0.7 3.6 0.7 5.3 1 2 0.8 4.1 1.5 5.8 3.1v0.7c-18.6 10-44.7 15.5-65.6 6.5-12.3-6.6-24.9-18.4-31.9-30.7-3.9-5-9-10.3-14.1-13.9-0.6 0.4-0.9 1-1 1.6 3.4 2.7 6.7 6.2 9.6 9.4-6.2-3.1-16.2-9.1-15.6-17.8 0.8-2.5 3.5-4.7 6.2-4.8 3 0.3 5 3 7.2 5.1z" fill="#7F7086"/>
 <path d="m190.6 207.4c3.6 5 8.7 8.6 14 10.6 0.5 1.6 1.8 3.3 1.6 5-6.8 4.7-13.7 10.7-22.8 8.6-5.1-1.6-9.3-6.7-12-11.2 1.7-5.6 4.7-10.5 4.8-16.6 4.5 2.2 9.5 2.7 14.4 3.6z" fill="#CD898F"/>
 <path d="m206.2 207.4c-0.5 2.3-1.8 5-1.6 7.9-3.9-1.7-8-3.9-10.6-7.7 4.1 0 8.3 0.2 12.2-0.2z" fill="#805D62"/>
 <path d="m230.5 201.9v0.5c-7.7 5.6-15 12-22.3 18.4-2.1-3.9-1.4-9.6 0.9-13.2 2.2-1.3 5-1.2 7.5-1.9 4.6-1 9.1-2.7 13.6-4.1l0.3 0.3z" fill="#F9B5C0"/>
 <path d="m261.2 100.8c6.3 10.4 2.6 24.8 6 36.3 0.1 0.6 0.9 1.2 0.2 1.9-1.3-0.5-1.2-2.4-1.9-3.6-3.2-13.6 0.27-34.9-14.9-38.4-4.9-0.8-9.7 0.2-13.9 1.9-0.8-0.3-0.2-0.7 0-1.2 7.3-3.3 19.2-5.8 24.5 3.1zm77.3 295.7c-3.1 3.4-6.6 5.7-10.6 7-0.4-0.3-0.9-0.3-1.2-0.7-0.3-0.9 0.7-1.7 1.5-1.7 5.5-1.6 11.2-5.8 13.9-11.3 0.2 2.3-2.1 4.6-3.6 6.7zm-144.7-220.3v0.7c-0.73-0.85-1.8-1.8-2.9-2.4-1-0.3-2.9-0.6-3.4 0.7-0.28 1.15 1.28 2.53 2.4 2.9 1.16 0.28 3.4-0.5 2.9 1.7-1.2 0.8-2.99 0.18-4.3-0.5-1.5-1.2-2.7-2.7-2.2-4.8 1-1.7 3.08-1.66 4.6-0.9 1.1 0.6 2.2 1.5 2.9 2.6zm58.3-60.2c9.3 16.9 3.2 38.9-8.7 52.8-0.5 0.7-1.6 1.2-1.6 2.1 6.2 0.2 13.6 0 17.7 4.8-8.4-5.1-20-2.6-29.3-1.2-4.5 1.9-10.3 2.7-14.8 0.3-9.7-7.2-11.5-19.5-9.6-31 2.1-12.5 9.3-25.8 22-31 0-1.2-0.1-3.7 2-3.8 8.2-2.5 17.4-0.4 22.3 7z" fill="#231F20"/>
 <path d="m190.62 104.61c0.6 8.5-1.11 15.29-3.41 22.69-1.8-1.2-5.87-0.99-7.21-0.21-4.3 2.7-4.9 7.41-4.5 11.91-4.2-13.6 0.6-27.7 7.7-38.6 1.4-1.2 2.6-3.5 4.6-2.7 1.5 1.6 2.56 3.9 2.82 6.91zm60.48 15.39c4.3 7.2 4.2 17.9 1.9 26-2.5-1.1-5.7-2.4-9.1-2.2-3.6 0.5-7 2.9-9.1 6.2-3.1 5.1-2.6 12.5 0.5 17.3 0.9 1.2 2 2 3.1 2.9 0.2 0.6-0.5 0.8-0.7 1.2-8-0.7-16.1 7.7-23.1 0.2-8.8-8.4-8.8-23.2-5.2-34 2.8-11.3 13.7-23.2 25.6-24.8 6.7-0.7 12.8 1.4 16.1 7.2zm-68.92 8.7c0.88 3.13-1.09 6.66-2.53 8.2-1.64 1.04-1.85-0.75-1.85-0.75-0.38-3.57 1.26-5.87 3.14-7.5 0.75-0.64 1.24 0.05 1.24 0.05zm62.02 20.9c0.3 1.6-0.4 2.8-1.2 4-1.4 1.2-2.9 2.6-4.8 1.7-1.2-0.8-1.1-2.4-0.8-3.6 0.9-1.8 2.7-3.2 4.6-3.6 0.8 0.2 1.9 0.5 2.2 1.5z" fill="#fff"/>
</svg>
