<?xml version="1.0" encoding="UTF-8"?>
<!DOCTYPE svg PUBLIC "-//W3C//DTD SVG 1.1//EN" "http://www.w3.org/Graphics/SVG/1.1/DTD/svg11.dtd">
<!-- Creator: CorelDRAW X7 -->
<svg xmlns="http://www.w3.org/2000/svg" xml:space="preserve" width="273px" height="274px" version="1.1" style="shape-rendering:geometricPrecision; text-rendering:geometricPrecision; image-rendering:optimizeQuality; fill-rule:evenodd; clip-rule:evenodd"
viewBox="0 0 273 274"
 xmlns:xlink="http://www.w3.org/1999/xlink"
 xmlns:svg="http://www.w3.org/2000/svg">
 <defs>
  <style type="text/css">
   <![CDATA[
    .fil0 {fill:#0078D6}
   ]]>
  </style>
 </defs>
 <g id="Layer_x0020_1">
  <metadata id="CorelCorpID_0Corel-Layer"/>
  <g id="_26257872464">
   <path id="path5" class="fil0" d="M125 22c49,-8 99,-15 148,-22l0 2 0 128c-49,0 -99,1 -148,1 0,-36 0,-73 0,-109l0 0 0 0z"/>
   <path id="path7" class="fil0" d="M0 39c37,-6 74,-11 112,-15 0,36 0,71 0,107 -38,0 -75,1 -112,1l0 -93 0 0 0 0z"/>
   <path id="path29" class="fil0" d="M0 143c37,0 74,1 112,0 0,36 0,72 0,108 -38,-5 -75,-10 -112,-15l0 -93z"/>
   <path id="path31" class="fil0" d="M125 144c49,0 99,0 148,0l0 124 0 6c-49,-8 -99,-14 -148,-21 0,-36 0,-72 0,-109l0 0z"/>
  </g>
 </g>
</svg>
